<svg version="1.1" id="Layer_1" xmlns="http://www.w3.org/2000/svg" xmlns:xlink="http://www.w3.org/1999/xlink" x="0px" y="0px" viewBox="0 0 500 500" style="width: 147px;" xml:space="preserve" data-imageid="user-interface-1-81" imageName="User Interface 1" class="illustrations_image">
<style type="text/css">
	.st0_user-interface-1-81{fill:none;}
	.st1_user-interface-1-81{fill:#1A1A1A;}
	.st2_user-interface-1-81{fill:#DB3B3B;}
	.st3_user-interface-1-81{fill:url(#SVGID_1_);}
	.st4_user-interface-1-81{fill:url(#SVGID_00000009582224466328318440000008389674144203713691_);}
	.st5_user-interface-1-81{fill:url(#SVGID_00000110468839891922300180000017596009960796264374_);}
	.st6_user-interface-1-81{fill:url(#SVGID_00000068659548310675840930000006030274421243569084_);}
	.st7_user-interface-1-81{fill:#68E1FD;}
	.st8_user-interface-1-81{fill:#1B1464;}
	.st9_user-interface-1-81{fill:#79CC37;}
	.st10_user-interface-1-81{opacity:0.71;}
	.st11_user-interface-1-81{fill:#FFFFFF;}
	.st12_user-interface-1-81{fill:#8787D1;}
	.st13_user-interface-1-81{fill:#FD7382;}
	.st14_user-interface-1-81{fill:url(#SVGID_00000054972774711704196060000003541516433521642116_);}
	.st15_user-interface-1-81{fill:url(#SVGID_00000014591721279580002980000000540740091915933857_);}
	.st16_user-interface-1-81{fill:url(#SVGID_00000153697510285188671500000007459782173602850211_);}
	.st17_user-interface-1-81{opacity:0.71;fill:#FFFFFF;enable-background:new    ;}
	.st18_user-interface-1-81{fill:#FDF2D6;}
	.st19_user-interface-1-81{fill:#FAB965;}
</style>
<pattern y="500" width="28.8" height="28.8" patternUnits="userSpaceOnUse" id="_10_dpi_10_3_user-interface-1-81" viewBox="0.7 -29.5 28.8 28.8" style="overflow:visible;">
	<g>
		<rect x="0.7" y="-29.5" class="st0_user-interface-1-81" width="28.8" height="28.8"/>
		<rect x="0.7" y="-29.5" class="st0_user-interface-1-81" width="28.8" height="28.8"/>
		<circle class="st1_user-interface-1-81" cx="29.5" cy="-29.5" r="0.7"/>
		<path class="st1_user-interface-1-81" d="M15.1-30.2c0.4,0,0.7,0.3,0.7,0.7c0,0.4-0.3,0.7-0.7,0.7c-0.4,0-0.7-0.3-0.7-0.7l0,0&#10;&#9;&#9;&#9;C14.4-29.9,14.7-30.2,15.1-30.2z"/>
		<path class="st1_user-interface-1-81" d="M29.5-15.8c0.4,0,0.7,0.3,0.7,0.7s-0.3,0.7-0.7,0.7c-0.4,0-0.7-0.3-0.7-0.7l0,0&#10;&#9;&#9;&#9;C28.8-15.5,29.1-15.8,29.5-15.8z"/>
		<path class="st1_user-interface-1-81" d="M15.1-15.8c0.4,0,0.7,0.3,0.7,0.7c0,0.4-0.3,0.7-0.7,0.7c-0.4,0-0.7-0.3-0.7-0.7S14.7-15.8,15.1-15.8&#10;&#9;&#9;&#9;C15.1-15.8,15.1-15.8,15.1-15.8z"/>
		<path class="st1_user-interface-1-81" d="M7.9-23c0.4,0,0.7,0.3,0.7,0.7c0,0.4-0.3,0.7-0.7,0.7s-0.7-0.3-0.7-0.7l0,0C7.2-22.7,7.5-23,7.9-23z"/>
		<path class="st1_user-interface-1-81" d="M22.3-23c0.4,0,0.7,0.3,0.7,0.7s-0.3,0.7-0.7,0.7c-0.4,0-0.7-0.3-0.7-0.7c0,0,0,0,0,0&#10;&#9;&#9;&#9;C21.6-22.7,21.9-23,22.3-23z"/>
		<path class="st1_user-interface-1-81" d="M7.9-8.6c0.4,0,0.7,0.3,0.7,0.7S8.3-7.2,7.9-7.2S7.2-7.5,7.2-7.9S7.5-8.6,7.9-8.6L7.9-8.6z"/>
		<path class="st1_user-interface-1-81" d="M22.3-8.6c0.4,0,0.7,0.3,0.7,0.7s-0.3,0.7-0.7,0.7c-0.4,0-0.7-0.3-0.7-0.7v0C21.6-8.3,21.9-8.6,22.3-8.6z"/>
		<circle class="st1_user-interface-1-81" cx="0.7" cy="-29.5" r="0.7"/>
		<path class="st1_user-interface-1-81" d="M0.7-15.8c0.4,0,0.7,0.3,0.7,0.7c0,0.4-0.3,0.7-0.7,0.7c-0.4,0-0.7-0.3-0.7-0.7l0,0C0-15.5,0.3-15.8,0.7-15.8&#10;&#9;&#9;&#9;z"/>
		<path class="st1_user-interface-1-81" d="M29.5-1.4c0.4,0,0.7,0.3,0.7,0.7c0,0,0,0,0,0c0,0.4-0.3,0.7-0.7,0.7c-0.4,0-0.7-0.3-0.7-0.7&#10;&#9;&#9;&#9;C28.8-1.1,29.1-1.4,29.5-1.4z"/>
		<path class="st1_user-interface-1-81" d="M15.1-1.4c0.4,0,0.7,0.3,0.7,0.7c0,0,0,0,0,0c0,0.4-0.3,0.7-0.7,0.7l0,0c-0.4,0-0.7-0.3-0.7-0.7c0,0,0,0,0,0&#10;&#9;&#9;&#9;C14.4-1.1,14.7-1.4,15.1-1.4L15.1-1.4z"/>
		<path class="st1_user-interface-1-81" d="M0.7-1.4c0.4,0,0.7,0.3,0.7,0.7c0,0,0,0,0,0C1.4-0.3,1.1,0,0.7,0c0,0,0,0,0,0C0.3,0,0-0.3,0-0.7c0,0,0,0,0,0&#10;&#9;&#9;&#9;C0-1.1,0.3-1.4,0.7-1.4C0.7-1.4,0.7-1.4,0.7-1.4z"/>
	</g>
</pattern>
<pattern y="500" width="28.8" height="28.8" patternUnits="userSpaceOnUse" id="_10_dpi_10_3-3_user-interface-1-81" viewBox="0.7 -29.5 28.8 28.8" style="overflow:visible;">
	<g>
		<rect x="0.7" y="-29.5" class="st0_user-interface-1-81" width="28.8" height="28.8"/>
		<rect x="0.7" y="-29.5" class="st0_user-interface-1-81" width="28.8" height="28.8"/>
		<circle class="st1_user-interface-1-81" cx="29.5" cy="-29.5" r="0.7"/>
		<path class="st1_user-interface-1-81" d="M15.1-30.2c0.4,0,0.7,0.3,0.7,0.7c0,0.4-0.3,0.7-0.7,0.7c-0.4,0-0.7-0.3-0.7-0.7l0,0&#10;&#9;&#9;&#9;C14.4-29.9,14.7-30.2,15.1-30.2z"/>
		<path class="st1_user-interface-1-81" d="M29.5-15.8c0.4,0,0.7,0.3,0.7,0.7s-0.3,0.7-0.7,0.7c-0.4,0-0.7-0.3-0.7-0.7l0,0&#10;&#9;&#9;&#9;C28.8-15.5,29.1-15.8,29.5-15.8z"/>
		<path class="st1_user-interface-1-81" d="M15.1-15.8c0.4,0,0.7,0.3,0.7,0.7c0,0.4-0.3,0.7-0.7,0.7c-0.4,0-0.7-0.3-0.7-0.7S14.7-15.8,15.1-15.8&#10;&#9;&#9;&#9;C15.1-15.8,15.1-15.8,15.1-15.8z"/>
		<path class="st1_user-interface-1-81" d="M7.9-23c0.4,0,0.7,0.3,0.7,0.7c0,0.4-0.3,0.7-0.7,0.7s-0.7-0.3-0.7-0.7l0,0C7.2-22.7,7.5-23,7.9-23z"/>
		<path class="st1_user-interface-1-81" d="M22.3-23c0.4,0,0.7,0.3,0.7,0.7s-0.3,0.7-0.7,0.7c-0.4,0-0.7-0.3-0.7-0.7c0,0,0,0,0,0&#10;&#9;&#9;&#9;C21.6-22.7,21.9-23,22.3-23z"/>
		<path class="st1_user-interface-1-81" d="M7.9-8.6c0.4,0,0.7,0.3,0.7,0.7S8.3-7.2,7.9-7.2S7.2-7.5,7.2-7.9S7.5-8.6,7.9-8.6L7.9-8.6z"/>
		<path class="st1_user-interface-1-81" d="M22.3-8.6c0.4,0,0.7,0.3,0.7,0.7s-0.3,0.7-0.7,0.7c-0.4,0-0.7-0.3-0.7-0.7v0C21.6-8.3,21.9-8.6,22.3-8.6z"/>
		<circle class="st1_user-interface-1-81" cx="0.7" cy="-29.5" r="0.7"/>
		<path class="st1_user-interface-1-81" d="M0.7-15.8c0.4,0,0.7,0.3,0.7,0.7c0,0.4-0.3,0.7-0.7,0.7c-0.4,0-0.7-0.3-0.7-0.7l0,0C0-15.5,0.3-15.8,0.7-15.8&#10;&#9;&#9;&#9;z"/>
		<path class="st1_user-interface-1-81" d="M29.5-1.4c0.4,0,0.7,0.3,0.7,0.7c0,0,0,0,0,0c0,0.4-0.3,0.7-0.7,0.7c-0.4,0-0.7-0.3-0.7-0.7&#10;&#9;&#9;&#9;C28.8-1.1,29.1-1.4,29.5-1.4z"/>
		<path class="st1_user-interface-1-81" d="M15.1-1.4c0.4,0,0.7,0.3,0.7,0.7c0,0,0,0,0,0c0,0.4-0.3,0.7-0.7,0.7l0,0c-0.4,0-0.7-0.3-0.7-0.7c0,0,0,0,0,0&#10;&#9;&#9;&#9;C14.4-1.1,14.7-1.4,15.1-1.4L15.1-1.4z"/>
		<path class="st1_user-interface-1-81" d="M0.7-1.4c0.4,0,0.7,0.3,0.7,0.7c0,0,0,0,0,0C1.4-0.3,1.1,0,0.7,0c0,0,0,0,0,0C0.3,0,0-0.3,0-0.7c0,0,0,0,0,0&#10;&#9;&#9;&#9;C0-1.1,0.3-1.4,0.7-1.4C0.7-1.4,0.7-1.4,0.7-1.4z"/>
	</g>
</pattern>
<pattern y="500" width="28.8" height="28.8" patternUnits="userSpaceOnUse" id="_10_dpi_10_3-5_user-interface-1-81" viewBox="0.7 -29.5 28.8 28.8" style="overflow:visible;">
	<g>
		<rect x="0.7" y="-29.5" class="st0_user-interface-1-81" width="28.8" height="28.8"/>
		<rect x="0.7" y="-29.5" class="st0_user-interface-1-81" width="28.8" height="28.8"/>
		<circle class="st1_user-interface-1-81" cx="29.5" cy="-29.5" r="0.7"/>
		<path class="st1_user-interface-1-81" d="M15.1-30.2c0.4,0,0.7,0.3,0.7,0.7c0,0.4-0.3,0.7-0.7,0.7c-0.4,0-0.7-0.3-0.7-0.7l0,0&#10;&#9;&#9;&#9;C14.4-29.9,14.7-30.2,15.1-30.2z"/>
		<path class="st1_user-interface-1-81" d="M29.5-15.8c0.4,0,0.7,0.3,0.7,0.7s-0.3,0.7-0.7,0.7c-0.4,0-0.7-0.3-0.7-0.7l0,0&#10;&#9;&#9;&#9;C28.8-15.5,29.1-15.8,29.5-15.8z"/>
		<path class="st1_user-interface-1-81" d="M15.1-15.8c0.4,0,0.7,0.3,0.7,0.7c0,0.4-0.3,0.7-0.7,0.7c-0.4,0-0.7-0.3-0.7-0.7S14.7-15.8,15.1-15.8&#10;&#9;&#9;&#9;C15.1-15.8,15.1-15.8,15.1-15.8z"/>
		<path class="st1_user-interface-1-81" d="M7.9-23c0.4,0,0.7,0.3,0.7,0.7c0,0.4-0.3,0.7-0.7,0.7s-0.7-0.3-0.7-0.7l0,0C7.2-22.7,7.5-23,7.9-23z"/>
		<path class="st1_user-interface-1-81" d="M22.3-23c0.4,0,0.7,0.3,0.7,0.7s-0.3,0.7-0.7,0.7c-0.4,0-0.7-0.3-0.7-0.7c0,0,0,0,0,0&#10;&#9;&#9;&#9;C21.6-22.7,21.9-23,22.3-23z"/>
		<path class="st1_user-interface-1-81" d="M7.9-8.6c0.4,0,0.7,0.3,0.7,0.7S8.3-7.2,7.9-7.2S7.2-7.5,7.2-7.9S7.5-8.6,7.9-8.6L7.9-8.6z"/>
		<path class="st1_user-interface-1-81" d="M22.3-8.6c0.4,0,0.7,0.3,0.7,0.7s-0.3,0.7-0.7,0.7c-0.4,0-0.7-0.3-0.7-0.7v0C21.6-8.3,21.9-8.6,22.3-8.6z"/>
		<circle class="st1_user-interface-1-81" cx="0.7" cy="-29.5" r="0.7"/>
		<path class="st1_user-interface-1-81" d="M0.7-15.8c0.4,0,0.7,0.3,0.7,0.7c0,0.4-0.3,0.7-0.7,0.7c-0.4,0-0.7-0.3-0.7-0.7l0,0C0-15.5,0.3-15.8,0.7-15.8&#10;&#9;&#9;&#9;z"/>
		<path class="st1_user-interface-1-81" d="M29.5-1.4c0.4,0,0.7,0.3,0.7,0.7c0,0,0,0,0,0c0,0.4-0.3,0.7-0.7,0.7c-0.4,0-0.7-0.3-0.7-0.7&#10;&#9;&#9;&#9;C28.8-1.1,29.1-1.4,29.5-1.4z"/>
		<path class="st1_user-interface-1-81" d="M15.1-1.4c0.4,0,0.7,0.3,0.7,0.7c0,0,0,0,0,0c0,0.4-0.3,0.7-0.7,0.7l0,0c-0.4,0-0.7-0.3-0.7-0.7c0,0,0,0,0,0&#10;&#9;&#9;&#9;C14.4-1.1,14.7-1.4,15.1-1.4L15.1-1.4z"/>
		<path class="st1_user-interface-1-81" d="M0.7-1.4c0.4,0,0.7,0.3,0.7,0.7c0,0,0,0,0,0C1.4-0.3,1.1,0,0.7,0c0,0,0,0,0,0C0.3,0,0-0.3,0-0.7c0,0,0,0,0,0&#10;&#9;&#9;&#9;C0-1.1,0.3-1.4,0.7-1.4C0.7-1.4,0.7-1.4,0.7-1.4z"/>
	</g>
</pattern>
<g id="background_user-interface-1-81">
	<path class="st2_user-interface-1-81" d="M241.1,387.8L13.7,253.4c-7.2-4.1-13.4-10.7-6.4-15.1l228.2-131.5c3.4-2.1,8.6-3.5,12.1-1.5l238.6,138.5&#10;&#9;&#9;c7.2,4.2,8.5,15.9,1.3,20.1L271,387.6C261.8,392.9,250.4,393,241.1,387.8z"/>
	
		<linearGradient id="SVGID_1_-user-interface-1-81" gradientUnits="userSpaceOnUse" x1="427.17" y1="290.72" x2="415.5" y2="273.34" gradientTransform="matrix(1 0 0 -1 0 502)">
		<stop offset="0" style="stop-color:#1B1464"/>
		<stop offset="1" style="stop-color:#DB3B3B"/>
	</linearGradient>
	<polyline class="st3_user-interface-1-81" points="454.5,236.4 428.8,251.4 378.8,217.5 404.8,204.6 &#9;"/>
	
		<linearGradient id="SVGID_00000171722224520926826570000012631614048078577587_-user-interface-1-81" gradientUnits="userSpaceOnUse" x1="290.7416" y1="298.5793" x2="274.0316" y2="263.3893" gradientTransform="matrix(1 0 0 -1 0 502)">
		<stop offset="0" style="stop-color:#1B1464"/>
		<stop offset="1" style="stop-color:#DB3B3B"/>
	</linearGradient>
	<path style="fill:url(#SVGID_00000171722224520926826570000012631614048078577587_);" d="M217.7,181.5c-8.5,5.4-20.3,17.2-29.3,22&#10;&#9;&#9;L329.3,290l34.8-25.5C359.2,262.1,221.6,185.3,217.7,181.5z"/>
	
		<linearGradient id="SVGID_00000158713710431836621250000015114779257292464301_-user-interface-1-81" gradientUnits="userSpaceOnUse" x1="217.4777" y1="227.3837" x2="177.5377" y2="178.8737" gradientTransform="matrix(1 0 0 -1 0 502)">
		<stop offset="0" style="stop-color:#1B1464"/>
		<stop offset="1" style="stop-color:#DB3B3B"/>
	</linearGradient>
	<path style="fill:url(#SVGID_00000158713710431836621250000015114779257292464301_);" d="M206.1,290c-8.5,5.4-48.8,23.9-57.8,28.7&#10;&#9;&#9;l37.6,23.5l39.8-37.7C220.8,302.1,210,293.8,206.1,290z"/>
	
		<linearGradient id="SVGID_00000117639386609072950510000003704442639882856106_-user-interface-1-81" gradientUnits="userSpaceOnUse" x1="74.0336" y1="281.217" x2="46.3636" y2="247.6171" gradientTransform="matrix(1 0 0 -1 0 502)">
		<stop offset="0" style="stop-color:#1B1464"/>
		<stop offset="1" style="stop-color:#DB3B3B"/>
	</linearGradient>
	<path style="fill:url(#SVGID_00000117639386609072950510000003704442639882856106_);" d="M66.7,231.6c-8.5,5.4-31.4,15-40.4,19.8&#10;&#9;&#9;l27.3,15.7l26-25.8C74.8,238.8,70.4,235.6,66.7,231.6z"/>
</g>
<g id="plant_user-interface-1-81">
	<path class="st7_user-interface-1-81 targetColor" d="M90.7,203.5c0,0-1.2,40.7-18.5,41.6s-18.5-41.6-18.5-41.6" style="fill: rgb(104, 225, 253);"/>
	<path class="st7_user-interface-1-81 targetColor" d="M90.7,203.5c0,0-1.2,40.7-18.5,41.6s-18.5-41.6-18.5-41.6" style="fill: rgb(104, 225, 253);"/>
	<ellipse class="st8_user-interface-1-81" cx="72.1" cy="203.5" rx="18.5" ry="7.7"/>
	<path class="st8_user-interface-1-81" d="M77.2,208.7c3.4-16.4,9.2-32.2,17.4-46.9c0.7-1.2,2.9-0.2,2.2,1.1c-8,14.5-13.8,30.2-17.1,46.4&#10;&#9;&#9;C79.4,210.6,76.9,210,77.2,208.7z"/>
	<path class="st8_user-interface-1-81" d="M66.6,211.3c1.3-19.7,3.5-39.3,6.6-58.9c0.2-1.3,2.8-1.3,2.6,0c-3.1,19.5-5.3,39.1-6.6,58.8&#10;&#9;&#9;C68.3,211.2,67.4,211.2,66.6,211.3z"/>
	<path class="st9_user-interface-1-81" d="M100.3,158c3-0.7,6.2-0.5,9.1,0.6c2.1,0.7,6.4,2.8,5.6,5.1s-6.1,1.9-8.2,1.4c-3-0.7-5.6-2.6-7.2-5.3&#10;&#9;&#9;c0-0.1-0.1-0.2-0.1-0.2c-0.3-0.4-0.2-1,0.2-1.3C99.9,158.1,100.1,158,100.3,158z"/>
	<path class="st9_user-interface-1-81" d="M96.2,156.8c0.3,0.6,1.1,0.8,1.7,0.5c0,0,0.1,0,0.1,0c2.8-1.7,6.4-2.7,8.4-5.2c1.4-1.7,2-4.5-0.6-5.8&#10;&#9;&#9;s-5.5-0.2-7.3,1.4c-2.3,2.1-2.5,5.3-3.1,7.9C95.3,156.1,95.7,156.6,96.2,156.8z M101.6,148.2l-0.1,0.3c-0.8,0.6-1.6,1.3-2.2,2.1&#10;&#9;&#9;C99.9,149.5,100.6,148.7,101.6,148.2z"/>
	<path class="st9_user-interface-1-81" d="M88.7,151.3c4.2-1.5,4.9,4.2,5,6.2c0,0.5-0.4,0.9-0.9,0.9c-0.5,0.4-1.3,0.4-1.8,0c-1.4-1-3.2-2-3.6-3.5&#10;&#9;&#9;C87.1,153.7,87.1,151.9,88.7,151.3z"/>
	<path class="st9_user-interface-1-81" d="M72.8,148.6c0.4,0.7,1.3,0.9,2,0.6c0.2,0,0.4,0,0.7,0c3.2-0.4,4.9-4.5,5.4-6.7s1.2-5.7-2-6.8&#10;&#9;&#9;c-2.8-0.9-5.9,0.5-7,3.3C70.8,142.1,71.5,145.7,72.8,148.6z M74.6,145.7c-0.1-0.5,0-1.1,0.1-1.6c0,0.4,0,0.8,0.1,1.1l0,0&#10;&#9;&#9;C74.7,145.4,74.6,145.5,74.6,145.7L74.6,145.7z"/>
	<path class="st9_user-interface-1-81" d="M55.8,149.2c-0.1,2.6,3.2,3.7,5.9,4.1c1.7,0.3,7.7,1.5,7.8-0.9c0.3-0.3,0.4-0.8,0.2-1.2&#10;&#9;&#9;c-1.3-2.5-4.5-3.6-7.6-4.3C59.6,146.4,56,146.3,55.8,149.2z M58.4,149.1c0.1,0.2,0.2,0.3,0.3,0.4c-0.1,0.1-0.1,0.3-0.2,0.5&#10;&#9;&#9;C58.3,149.8,58.2,149.4,58.4,149.1z"/>
	<path class="st9_user-interface-1-81" d="M79.1,151.2c0.3,0.6,0.9,0.8,1.5,0.7c1.8-0.2,3.4-0.8,4.9-1.7c1-0.8,1.6-2.3,0.8-3.4c-2-2.4-6.6,1.6-7.8,3&#10;&#9;&#9;C77.9,150.4,78.4,151,79.1,151.2z M82.7,149.2l-0.2,0.1l1.3-0.7l0,0C83.5,148.9,83.1,149.1,82.7,149.2L82.7,149.2z"/>
</g>
<g id="screen_data_2_user-interface-1-81">
	<path class="st8_user-interface-1-81" d="M425.8,134.4l48.3,28.4c1.9,1.1,2.7,3.3,2.1,5.4l-19.9,65.6c-0.7,2.5-3.3,3.9-5.8,3.1c-0.3-0.1-0.7-0.2-1-0.4&#10;&#9;&#9;l-48.7-27.5c-1.9-1.1-2.8-3.3-2.2-5.4L419,137c0.8-2.5,3.4-3.8,5.8-3.1C425.2,134,425.5,134.2,425.8,134.4z"/>
	<path class="st7_user-interface-1-81 targetColor" d="M424.9,140.5l45.3,26.7c0.6,0.4,1,1.1,0.7,1.8l-18.3,60.5c-0.2,0.8-1.1,1.3-1.9,1c-0.1,0-0.2-0.1-0.3-0.1&#10;&#9;&#9;l-45.7-25.8c-0.6-0.4-0.9-1.1-0.7-1.8l18.6-61.4c0.3-0.8,1.1-1.3,1.9-1C424.7,140.4,424.8,140.4,424.9,140.5z" style="fill: rgb(104, 225, 253);"/>
	<g class="st10_user-interface-1-81">
		<path class="st11_user-interface-1-81" d="M416.6,197.6l27.2,16.3c0.4,0.2,0.7,0.8,0.5,1.3c-0.3,0.9-1.1,1.4-2,1.4c-0.3,0-0.5-0.1-0.8-0.2l-26-15.6&#10;&#9;&#9;&#9;L416.6,197.6z"/>
	</g>
	<polygon class="st12_user-interface-1-81" points="447.1,178 453.5,181.9 446,211.5 439.6,207.6 &#9;"/>
	<polygon class="st13_user-interface-1-81" points="437.6,166.6 444.1,170.4 435.4,205.3 428.8,201.2 &#9;"/>
	<polygon class="st11_user-interface-1-81" points="428.6,156.9 434.3,160.6 424.6,199 418.7,195.4 &#9;"/>
</g>
<g id="screen_data_1_user-interface-1-81">
	<path class="st8_user-interface-1-81" d="M203.6,173.9c0,0,38.1-123,37.9-123s1.2-5.5,8-2.4l146.2,86.1c0,0,7.1,2.9,5.7,9.5s-37.2,120.4-37.2,120.4&#10;&#9;&#9;c-1.5,2.2-4.3,3.2-6.9,2.4c-4.5-1.4-150.2-86-150.2-86S202.1,179,203.6,173.9z"/>
	<polygon class="st7_user-interface-1-81 targetColor" points="243.9,59.9 393.6,147.2 362.5,251.4 210.9,166.8 &#9;" style="fill: rgb(104, 225, 253);"/>
	
		<ellipse transform="matrix(4.588600e-02 -0.9989 0.9989 4.588600e-02 190.4262 520.8824)" class="st11_user-interface-1-81" cx="367.9" cy="160.8" rx="12.3" ry="9.3"/>
	
		<pattern id="SVGID_00000054266216903834059430000003665917769390839486__user-interface-1-81" xlink:href="#_10_dpi_10_3" patternTransform="matrix(-1.641351e-02 0.1394 -0.1394 -1.641351e-02 -14905.1738 -14938.874)">
	</pattern>
	<path style="fill:url(#SVGID_00000054266216903834059430000003665917769390839486_);" d="M358.6,160.3c0.3-6.8,4.7-12.1,9.9-11.8&#10;&#9;&#9;c5.1,0.2,9,5.9,8.7,12.7c-0.3,6.8-4.7,12.1-9.9,11.8S358.3,167.1,358.6,160.3z"/>
	<path class="st13_user-interface-1-81" d="M367.2,160.7l3.3-11.9c0,0-4.6-2.2-8.4,2.5L367.2,160.7z"/>
	<path class="st12_user-interface-1-81" d="M367.2,160.7c0,0-7.6,5.9-7.8,5.4c-2-5-0.9-10.8,2.7-14.8L367.2,160.7z"/>
	
		<ellipse transform="matrix(4.588600e-02 -0.9989 0.9989 4.588600e-02 152.129 539.5203)" class="st11_user-interface-1-81" cx="358.5" cy="190.1" rx="12.3" ry="9.3"/>
	
		<pattern id="SVGID_00000120540357348128315040000008891072909215754637__user-interface-1-81" xlink:href="#_10_dpi_10_3-3" patternTransform="matrix(-1.641351e-02 0.1394 -0.1394 -1.641351e-02 -14914.5654 -14968.2412)">
	</pattern>
	<path style="fill:url(#SVGID_00000120540357348128315040000008891072909215754637_);" d="M349.2,189.7c0.3-6.8,4.7-12.1,9.9-11.8&#10;&#9;&#9;s9,5.9,8.7,12.7c-0.3,6.8-4.7,12.1-9.9,11.8C352.8,202.2,348.9,196.5,349.2,189.7z"/>
	<path class="st13_user-interface-1-81" d="M357.8,190.1l3.3-11.8c0,0-4.6-2.2-8.4,2.5L357.8,190.1z"/>
	<path class="st12_user-interface-1-81" d="M357.8,190.1c0,0-7.6,5.9-7.8,5.4c-2-5-0.9-10.8,2.7-14.8L357.8,190.1z"/>
	
		<ellipse transform="matrix(4.588600e-02 -0.9989 0.9989 4.588600e-02 115.2892 559.6882)" class="st11_user-interface-1-81" cx="350.6" cy="219.5" rx="12.3" ry="9.3"/>
	
		<pattern id="SVGID_00000157273697142607238600000005594650960729083578__user-interface-1-81" xlink:href="#_10_dpi_10_3-5" patternTransform="matrix(-1.641351e-02 0.1394 -0.1394 -1.641351e-02 -14959.4395 -14994.1982)">
	</pattern>
	<path style="fill:url(#SVGID_00000157273697142607238600000005594650960729083578_);" d="M341.3,219.1c0.3-6.8,4.7-12.1,9.9-11.8&#10;&#9;&#9;s9,5.9,8.7,12.7c-0.3,6.8-4.7,12.1-9.9,11.8C344.9,231.5,341,225.8,341.3,219.1z"/>
	<path class="st13_user-interface-1-81" d="M350,219.5l3.3-11.9c0,0-4.6-2.2-8.4,2.5L350,219.5z"/>
	<path class="st12_user-interface-1-81" d="M350,219.5c0,0-7.6,5.9-7.8,5.4c-2-5-0.9-10.8,2.7-14.8L350,219.5z"/>
	<polygon class="st17_user-interface-1-81" points="252.2,80.2 299,107.4 289.3,140 241.9,113.5 &#9;"/>
	<polygon class="st17_user-interface-1-81" points="238.5,118.4 285.3,145.7 275.6,178.3 228.2,151.8 &#9;"/>
	<polygon class="st17_user-interface-1-81" points="309.2,113 335.2,128.2 325.5,160.8 299,145.9 &#9;"/>
	<path class="st17_user-interface-1-81" d="M319.1,170.9l-23.6-13.3c-1.5-0.9-2.8,1.5-1.3,2.4l23.6,13.3C319.4,174.1,320.7,171.7,319.1,170.9z"/>
	<path class="st17_user-interface-1-81" d="M317.4,176.2l-23.6-13.3c-1.5-0.9-2.8,1.5-1.3,2.4l23.6,13.3C317.7,179.4,318.9,177.1,317.4,176.2z"/>
	<path class="st17_user-interface-1-81" d="M315.9,181.9l-23.6-13.3c-1.5-0.9-2.8,1.5-1.3,2.4l23.6,13.3C316.2,185.1,317.4,182.7,315.9,181.9z"/>
	<path class="st17_user-interface-1-81" d="M314.4,186.9l-23.6-13.3c-1.5-0.9-2.8,1.5-1.3,2.4l23.6,13.3C314.7,190.2,316,187.8,314.4,186.9z"/>
	<path class="st17_user-interface-1-81" d="M345.2,141.2c-6.5,20.9-13,41.9-19.5,62.8c-1.5,4.7,6,6.3,7.4,1.7l19.5-62.8&#10;&#9;&#9;C354,138.2,346.6,136.6,345.2,141.2z"/>
</g>
<g id="character_user-interface-1-81">
	<path class="st1_user-interface-1-81" d="M202.9,297.5l-5.4-1.5l0.8-6.5C198.4,289.5,204.2,290.5,202.9,297.5z"/>
	<path class="st18_user-interface-1-81" d="M195.6,278.5c0,0-1.9,22.1-1.4,22.3s5.7,0.7,5.7,0.3s0.3-10,0.3-10s2.6,4.3,2.7,6.4c0,0,6.2-3.5,7.3-6.3&#10;&#9;&#9;s-2.6-14.6-4.1-15.2"/>
	<path class="st1_user-interface-1-81" d="M216.2,309.1l-6.1-6.4l4-5C214.1,297.7,217.8,305.8,216.2,309.1z"/>
	<path class="st18_user-interface-1-81" d="M207.1,283.6l-2.8,26.5c0,0,4.6,1.5,5.4,1.4c1.1-0.4,2.2-0.9,3.3-1.5l1-8.8c0,0,2.6,2.6,2.1,8&#10;&#9;&#9;c0-0.4,4.2-1.8,4.7-2c1.7-0.7,3.3-1.6,4.9-2.6c1.6-1.1,7.6-6.1,4.4-8c-2.7-1.7-11.6-0.9-11.6-0.9l-0.1-10.9"/>
	<path class="st9_user-interface-1-81" d="M196.6,188.7c0.1-0.3-0.1-0.7-0.5-0.7c-0.1,0-0.1,0-0.2,0c0.6-2.3,1.6-4.5,3-6.5l25.6-3c0,0,5.1,18.3,7.1,49.9&#10;&#9;&#9;c1.5,24.5-10.5,60.9-10.5,60.9s-12.4,3.1-18.4-3l0.2-5.3c-3.1,0-6.2-0.3-9.2-0.8C190.7,249.8,193.1,219,196.6,188.7z"/>
	<path class="st1_user-interface-1-81" d="M202.1,284.8c1.1-7.6,2.1-15.1,3.2-22.7c1-7.2,2.6-14.6,2.6-22s-2.5-13.9-3.7-20.9c-1.2-6.8-1.4-13.6-0.9-20.5&#10;&#9;&#9;c0.1-1.6,2.4-1.6,2.3,0c-0.7,7.7-0.2,15.4,1.4,22.9c1.4,6.7,3.4,13.1,3.1,20.1s-1.7,14.1-2.7,21.1l-3.2,22.7&#10;&#9;&#9;C204.1,287,201.9,286.4,202.1,284.8z"/>
	<path class="st13_user-interface-1-81" d="M246.4,149.3c-0.9,1.4-3.7,3.4-4.4,4.9c2,1.7,2.4,3.5,4.4,5.3c0.3-0.8,1.6-1.3,2.2-1.6c1-0.6,1.8-1.4,2.8-2&#10;&#9;&#9;s2.4-1.1,3.5-1.6c0.3-0.2,0.6-0.4,0.9-0.6c0.3-0.1,0.6-0.2,0.9-0.4c0.7-0.4,0.9-1.2,0.5-1.9c0,0-0.1-0.1-0.1-0.1&#10;&#9;&#9;c0.6-0.3,0.9-0.9,0.8-1.6c-0.1-0.4-0.4-0.7-0.8-0.8l-0.1-0.1c0.3-0.2,0.4-0.4,0.4-0.7c0-0.1,0.1-0.3,0.1-0.4&#10;&#9;&#9;c-0.1-1.5-1.2-1.7-2.3-1.2l-0.2,0.1c0.7-0.5,1.2-1.2,1.7-1.9c1.1-1.1,1.9-2.2,0.9-2.9s-2.6,0.9-3.3,1.4c-1.5,1.1-3,2.5-4.5,3.6&#10;&#9;&#9;c0-0.2,0-0.3,0-0.4c0-0.1,0-0.2,0-0.2l0,0c0-0.8-0.1-3.5-1-3.9c-0.4-0.3-1-0.1-1.2,0.3c-0.1,0.1-0.1,0.3-0.1,0.4&#10;&#9;&#9;C246.9,145.3,246.7,146.8,246.4,149.3z"/>
	<path class="st19_user-interface-1-81" d="M244.6,151.1l-11.9,8.1c-1.9-4.7-4.3-9.1-7.2-13.2c-4.9-7-18.5-4.9-18.5-4.9s-8,5.7-11,12s-2.8,22.6-0.2,28.1&#10;&#9;&#9;s18.5,4.8,27.6,2.6c0.6,0.2,1.3-0.2,1.5-0.8c0-0.1,0-0.2,0-0.3c0-4.7-0.1-9.5-0.1-14.2c5.8,7.1,14.9,2.3,20.6-3.2&#10;&#9;&#9;c2.8-2.5,5.3-5.2,7.5-8.2C252,153.9,244.6,151.1,244.6,151.1z"/>
	<path class="st13_user-interface-1-81" d="M220.2,127.4c0,0,0.7,10.9-2.6,13.4s-8.8-1.6-8.8-1.6"/>
	<path class="st1_user-interface-1-81" d="M217.5,121.9c1.5,1.1,2.6,2.6,3.3,4.3c2.7,6.8-4.6,15.3-11.2,16.6l-3.4-1.1c0,0-4.5-6.6-4.5-10.4&#10;&#9;&#9;c0-3.6,1.3-7.1,3.8-9.7C209,118.6,214,119.2,217.5,121.9z"/>
	<path class="st1_user-interface-1-81" d="M209.6,142.9c0,0,12.3,35.4,3,41.3s-27.3,0.5-23.8-8.2s17.4-34.1,17.4-34.1"/>
</g>
</svg>